Coordinates
version=1
nRows=26
nColumns=24
inDegrees=yes

Units are S.I. units (second, meters, Newtons, ...)
Angles are in degrees.

endheader
time	pelvis_tilt	pelvis_list	pelvis_rotation	pelvis_tx	pelvis_ty	pelvis_tz	hip_flexion_r	hip_adduction_r	hip_rotation_r	knee_angle_r	ankle_angle_r	subtalar_angle_r	mtp_angle_r	hip_flexion_l	hip_adduction_l	hip_rotation_l	knee_angle_l	ankle_angle_l	subtalar_angle_l	mtp_angle_l	lumbar_extension	lumbar_bending	lumbar_rotation
      0.93200000	      3.19045941	     -1.62976439	     -0.99805056	      0.60715819	      0.99602002	      0.16187161	    -12.95776665	      4.36104264	    -15.17031218	     -3.54546876	     12.31107667	      7.74162712	      6.60760704	     23.62593347	     -4.75760062	    -16.48321952	    -26.94471015	      5.40726765	      1.88925713	     18.98580636	    -11.22040716	      2.74150619	      5.56524401
      0.93600000	      3.22869254	     -1.76618643	     -0.99784284	      0.61251012	      0.99497446	      0.16166157	    -13.37385853	      4.49543733	    -15.27518219	     -3.50814650	     12.53161616	      7.90159071	      6.86783713	     23.34338171	     -4.70219781	    -16.76630445	    -25.23574590	      5.19704550	      2.21881922	     18.86820289	    -11.22108705	      2.86940592	      5.66544330
      0.94000000	      3.27107249	     -1.91280444	     -1.00126426	      0.61788132	      0.99389711	      0.16143586	    -13.78786932	      4.63377304	    -15.37498730	     -3.48719927	     12.75410418	      8.07363088	      7.13853867	     23.04767108	     -4.65365893	    -17.06360764	    -23.53132741	      4.98209334	      2.57830096	     18.77668857	    -11.22604812	      3.00986328	      5.76913842
      0.94400000	      3.31730004	     -2.06960836	     -1.00844784	      0.62327253	      0.99278860	      0.16119341	    -14.19954443	      4.77549073	    -15.46927034	     -3.48273330	     12.97810620	      8.25867141	      7.41970658	     22.74201805	     -4.61211880	    -17.37329507	    -21.83889084	      4.76348584	      2.96492869	     18.71057343	    -11.23492585	      3.16289715	      5.87647666
      0.94800000	      3.36697931	     -2.23636931	     -1.01948687	      0.62868442	      0.99164989	      0.16093341	    -14.60854237	      4.91984939	    -15.55761053	     -3.49479449	     13.20311082	      8.45746604	      7.71159795	     22.42982242	     -4.57766604	    -17.69325173	    -20.16640124	      4.54257151	      3.37527346	     18.66908430	    -11.24726857	      3.32824039	      5.98749423
      0.95200000	      3.41961517	     -2.41260982	     -1.03443180	      0.63411751	      0.99048229	      0.16065532	    -15.01442464	      5.06590706	    -15.63963331	     -3.52337277	     13.42852198	      8.67057280	      8.01476877	     22.11459700	     -4.55032769	    -18.02112078	    -18.52224315	      4.32099118	      3.80530971	     18.65138538	    -11.26254447	      3.50530168	      6.10210793
      0.95600000	      3.47461703	     -2.59758254	     -1.05328790	      0.63957202	      0.98928747	      0.16035895	    -15.41665006	      5.21250982	    -15.71502005	     -3.56840835	     13.65365272	      8.89833172	      8.33010838	     21.79989705	     -4.53005590	    -18.35435038	    -16.91508272	      4.10067838	      4.25049268	     18.65659693	    -11.28015068	      3.69313822	      6.22010989
      0.96000000	      3.53131066	     -2.79025861	     -1.07601382	      0.64504785	      0.98806750	      0.16004445	    -15.81457467	      5.35829015	    -15.78351737	     -3.62979926	     13.87772115	      9.14084682	      8.65887059	     21.48925318	     -4.51671783	    -18.69024578	    -15.35370676	      3.88383920	      4.70585227	     18.68381191	    -11.29942382	      3.89044132	      6.34116579
      0.96400000	      3.58895771	     -2.98932675	     -1.10252178	      0.65054460	      0.98682489	      0.15971235	    -16.20745768	      5.50167547	    -15.84494540	     -3.70741018	     14.09984899	      9.39797305	      9.00270032	     21.18610933	     -4.51008953	    -19.02602397	    -13.84684669	      3.67291099	      5.16610021	     18.73211020	    -11.31965191	      4.09553678	      6.46481681
      0.96800000	      3.64678049	     -3.19320398	     -1.13267916	      0.65606158	      0.98556274	      0.15936351	    -16.59447308	      5.64090713	    -15.89920490	     -3.80108154	     14.31906300	      9.66930871	      9.36365476	     20.89376544	     -4.50985363	    -19.35886829	    -12.40299797	      3.47050020	      5.62574712	     18.80057002	    -11.34008724	      4.30640084	      6.59048540
      0.97200000	      3.70398817	     -3.40005847	     -1.16631192	      0.66159797	      0.98428471	      0.15899913	    -16.97472581	      5.77407000	    -15.94628252	     -3.91063852	     14.53429930	      9.95419373	      9.74421779	     20.61532328	     -4.51560018	    -19.68598021	    -11.03024639	      3.27930157	      6.07922529	     18.88827632	    -11.35995978	      4.52069154	      6.71748470
      0.97600000	      3.75980036	     -3.60784447	     -1.20320943	      0.66715287	      0.98299504	      0.15862068	    -17.34727144	      5.89913159	    -15.98625416	     -4.03589924	     14.74441061	     10.25171373	     10.14730656	     20.35363440	     -4.52683012	    -20.00462626	     -9.73611144	      3.10200222	      6.52101317	     18.99432603	    -11.37849100	      4.73579464	      6.84503152
      0.98000000	      3.81346597	     -3.81434853	     -1.24313064	      0.67272537	      0.98169848	      0.15822981	    -17.71113771	      6.01398923	    -16.01928587	     -4.17668199	     14.94817603	     10.56070991	     10.57626918	     20.11125016	     -4.54296050	    -20.31217835	     -8.52741521	      2.94117525	      6.94575720	     19.11782995	    -11.39490780	      4.94888204	      6.97226213
      0.98400000	      3.86427674	     -4.01724495	     -1.28581085	      0.67831460	      0.98040017	      0.15782835	    -18.06534665	      6.11652270	    -16.04563229	     -4.33281129	     15.14431289	     10.87979409	     11.03487255	     19.89037573	     -4.56333120	    -20.60614639	     -7.41018140	      2.79916875	      7.34838714	     19.25791131	    -11.40845626	      5.15697994	      7.09825051
      0.98800000	      3.91157734	     -4.21415741	     -1.33096881	      0.68391972	      0.97910539	      0.15741822	    -18.40893608	      6.20464951	    -16.06563248	     -4.50412311	     15.33149015	     11.20736852	     11.52727946	     19.69283206	     -4.58721313	    -20.88420316	     -6.38956541	      2.67799627	      7.72422138	     19.41370118	    -11.41841532	      5.35704374	      7.22202824
      0.99200000	      3.95477412	     -4.40272323	     -1.37831331	      0.68953997	      0.97781942	      0.15700139	    -18.74097984	      6.27637961	    -16.07970309	     -4.69046991	     15.50834252	     11.54164935	     12.05801431	     19.52003021	     -4.61381836	    -21.14420175	     -5.46981327	      2.57923495	      8.06905914	     19.58433086	    -11.42411018	      5.54603616	      7.34260521
      0.99600000	      3.99334479	     -4.58065630	     -1.42754887	      0.69517469	      0.97654725	      0.15657983	    -19.06060638	      6.32986694	    -16.08832923	     -4.89172620	     15.67348467	     11.88069309	     12.63191686	     19.37296232	     -4.64231261	    -21.38418664	     -4.65424478	      2.50393707	      8.37925724	     19.76892157	    -11.42492555	      5.72100520	      7.45899055
      1.00000000	      4.02684924	     -4.74580555	     -1.47838008	      0.70082341	      0.97529348	      0.15615547	    -19.36701558	      6.36345538	    -16.09205313	     -5.10779573	     15.82552458	     12.22242491	     13.25408386	     19.25221028	     -4.67183018	    -21.60239989	     -3.94525600	      2.45256006	      8.65178992	     19.96657194	    -11.42031853	      5.87915891	      7.57021288
      1.00400000	      4.05494077	     -4.89620649	     -1.53051403	      0.70648584	      0.97406223	      0.15573011	    -19.65949310	      6.37571737	    -16.09146117	     -5.33862058	     15.96307564	     12.56466801	     13.92979858	     19.15797106	     -4.70149110	    -21.79728401	     -3.34433615	      2.42491900	      8.88429071	     20.17634377	    -11.40983108	      6.01793398	      7.67533944
      1.00800000	      4.07737590	     -5.03012477	     -1.58366071	      0.71216197	      0.97285713	      0.15530533	    -19.93742131	      6.36548373	    -16.08716947	     -5.58419239	     16.08476668	     12.90517292	     14.66444840	     19.09009470	     -4.73041915	    -21.96748319	     -2.85209503	      2.42016428	      9.07507641	     20.39724679	    -11.39310138	      6.13505578	      7.77349337
      1.01200000	      4.09402153	     -5.14609081	     -1.63753151	      0.71785206	      0.97168141	      0.15488248	    -20.20028540	      6.33186421	    -16.07980858	     -5.84456508	     16.18924966	     13.24164626	     15.46343125	     19.04813062	     -4.75775959	    -22.11184420	     -2.46829752	      2.43678603	      9.22315360	     20.62822295	    -11.36987389	      6.22858789	      7.86386893
      1.01600000	      4.10485858	     -5.24292533	     -1.69183670	      0.72355657	      0.97053792	      0.15446260	    -20.44767360	      6.27425887	    -16.07000770	     -6.11986876	     16.27520473	     13.57177808	     16.33205177	     19.03137787	     -4.78269476	    -22.22941845	     -2.19190212	      2.47264554	      9.32820905	     20.86813114	    -11.34000728	      6.29696990	      7.94574414
      1.02000000	      4.10998074	     -5.31975549	     -1.74628214	      0.72927621	      0.96942918	      0.15404637	    -20.67927037	      6.19236082	    -16.05837867	     -6.41032398	     16.34134231	     13.89326744	     17.27540845	     19.03893377	     -4.80445661	    -22.31946586	     -2.02110233	      2.52503243	      9.39058541	     21.11573289	    -11.30347983	      6.33904281	      8.01849080
      1.02400000	      4.10958673	     -5.37602203	     -1.80056598	      0.73501182	      0.96835731	      0.15363409	    -20.89484245	      6.08615125	    -16.04550036	     -6.71625555	     16.38640231	     14.20384591	     18.29827347	     19.06973635	     -4.82233491	    -22.38146138	     -1.95336996	      2.59074559	      9.41124393	     21.36967981	    -11.26039177	      6.35406213	      8.08158181
      1.02800000	      4.10396729	     -5.41147773	     -1.85437594	      0.74076430	      0.96732411	      0.15322567	    -21.09421813	      5.95588777	    -16.03190348	     -7.03810556	     16.40915037	     14.50129868	     19.40496708	     19.12259843	     -4.83568124	    -22.41510429	     -1.98549927	      2.66619440	      9.39171617	     21.62850341	    -11.21096384	      6.34169911	      8.13459575
      1.03200000	      4.09348905	     -5.42617804	     -1.90738788	      0.74653451	      0.96633105	      0.15282061	    -21.27726114	      5.80208699	    -16.01805649	     -7.37644493	     16.40837134	     14.78348333	     20.59922888	     19.19623330	     -4.84390893	    -22.42033008	     -2.11365115	      2.74751643	      9.33404652	     21.89060793	    -11.15553208	      6.30203094	      8.17721886
